<svg xmlns="http://www.w3.org/2000/svg" width="572" height="572" preserveAspectRatio="xMidYMid meet" version="1.0" viewBox="0 0 429 429"><metadata>Created by potrace 1.11, written by Peter Selinger 2001-2013</metadata><g fill="#000" stroke="none"><path d="M1159 3336 c-2 -2 -30 -6 -62 -10 -67 -7 -210 -40 -271 -62 -102 -39 -122 -47 -196 -84 -275 -140 -487 -379 -580 -657 -40 -120 -45 -153 -45 -308 0 -155 5 -193 40 -305 136 -428 566 -755 1076 -817 77 -9 314 -8 384 1 85 12 183 34 270 61 l83 26 83 -67 c199 -161 382 -193 532 -93 101 66 185 183 242 334 24 65 25 70 9 82 -26 19 -29 17 -66 -29 -47 -61 -77 -86 -125 -109 -75 -35 -153 -20 -281 53 l-53 30 85 80 c100 93 182 210 237 339 39 90 74 210 84 284 10 86 5 253 -10 305 -2 8 -7 30 -10 49 -10 58 -45 153 -88 236 -85 167 -217 313 -382 425 -158 107 -360 188 -550 220 -86 14 -394 26 -406 16z m312 -70 c260 -66 455 -297 543 -641 34 -135 44 -248 41 -445 -4 -183 -4 -185 -37 -345 -17 -83 -61 -230 -74 -244 -2 -2 -56 33 -121 76 -210 142 -318 184 -480 184 -192 0 -314 -78 -358 -228 -5 -18 -1 -24 17 -28 18 -5 33 2 61 29 21 20 53 38 72 42 93 17 216 -26 340 -120 85 -64 255 -224 255 -240 0 -13 -76 -65 -145 -100 -128 -63 -303 -76 -458 -35 -255 68 -464 333 -531 674 -9 44 -18 94 -22 110 -10 53 -13 388 -4 465 60 497 299 811 655 859 76 10 174 5 246 -13z" transform="translate(0.000000,429.000000) scale(0.100000,-0.100000)"/><path d="M3054 2394 c-176 -29 -308 -155 -350 -335 -3 -13 -8 -62 -10 -109 -8 -195 78 -369 217 -440 99 -51 249 -53 354 -6 231 104 242 398 19 507 -39 19 -67 24 -138 26 -100 2 -146 -14 -203 -73 l-33 -33 0 107 c0 173 35 267 119 316 58 34 174 29 228 -9 27 -19 21 -40 -18 -60 -46 -25 -65 -74 -47 -125 20 -60 114 -80 165 -36 25 22 28 31 28 84 0 52 -4 65 -31 99 -62 77 -172 109 -300 87z m124 -417 c43 -40 53 -82 53 -214 0 -128 -10 -184 -39 -220 -19 -25 -77 -51 -107 -48 -11 1 -32 2 -47 3 -37 3 -92 54 -113 104 -25 63 -22 247 5 303 21 44 65 82 109 95 41 13 113 1 139 -23z" transform="translate(0.000000,429.000000) scale(0.100000,-0.100000)"/><path d="M3863 2398 c-147 -22 -264 -139 -316 -315 -20 -67 -20 -229 0 -296 17 -60 56 -140 78 -165 62 -67 97 -96 145 -120 47 -23 68 -27 140 -27 74 0 93 4 141 28 112 57 187 154 226 292 14 48 12 235 -3 287 -60 212 -231 343 -411 316z m113 -39 c44 -21 84 -109 93 -205 9 -93 7 -433 -3 -484 -11 -56 -52 -137 -79 -154 -61 -41 -150 -21 -188 40 -40 66 -50 129 -53 334 -5 285 11 387 71 446 43 44 98 52 159 23z" transform="translate(0.000000,429.000000) scale(0.100000,-0.100000)"/></g></svg>